<?xml version="1.0" encoding="UTF-8"?>
<svg version="1.1" xmlns="http://www.w3.org/2000/svg" width="500" height="500">
<path d="M0 0 C165 0 330 0 500 0 C500 165 500 330 500 500 C335 500 170 500 0 500 C0 335 0 170 0 0 Z " fill="#7ED957" transform="translate(0,0)"/>
<path d="M0 0 C165 0 330 0 500 0 C500 76.89 500 153.78 500 233 C499.67 233 499.34 233 499 233 C498.91548584 232.1970752 498.83097168 231.39415039 498.74389648 230.56689453 C493.56464714 182.85810523 477.91374565 137.12292325 448 99 C447.30777344 98.11699219 446.61554688 97.23398438 445.90234375 96.32421875 C425.5470859 70.94297131 401.37386332 49.96168176 373 34 C372.37399902 33.63986816 371.74799805 33.27973633 371.10302734 32.90869141 C353.9130761 23.06665271 335.2091296 15.57692807 316.0546875 10.546875 C314.52467223 10.1396466 312.99928128 9.71496557 311.4765625 9.28125 C304.94834397 7.4359155 298.43410733 6.02426192 291.75 4.875 C290.36748047 4.62169922 290.36748047 4.62169922 288.95703125 4.36328125 C275.48877401 2.01695934 261.88427936 1.79182111 248.25 1.8125 C247.13564575 1.81340637 247.13564575 1.81340637 245.9987793 1.81433105 C229.00035463 1.85174036 212.97186955 3.28911696 196.46191406 7.390625 C194.74211621 7.81631078 193.01987691 8.23219962 191.29589844 8.640625 C177.31597322 11.9538143 164.13329554 16.16982269 151 22 C150.14696289 22.37640625 149.29392578 22.7528125 148.41503906 23.140625 C128.32749528 32.10494353 110.05074469 43.10091651 93 57 C92.39494629 57.48936035 91.78989258 57.9787207 91.16650391 58.48291016 C76.48398165 70.43850488 63.19921574 83.72082114 52 99 C51.57525391 99.56928223 51.15050781 100.13856445 50.71289062 100.72509766 C21.78148186 139.53739224 6.06655241 184.08543093 1 232 C0.67 232 0.34 232 0 232 C0 155.44 0 78.88 0 0 Z " fill="#FEFEFE" transform="translate(0,0)"/>
<path d="M0 0 C0.33 0 0.66 0 1 0 C1 77.22 1 154.44 1 234 C-72.92 234 -146.84 234 -223 234 C-223 233.67 -223 233.34 -223 233 C-222.20118408 232.87995605 -221.40236816 232.75991211 -220.5793457 232.63623047 C-190.35496686 228.02701812 -161.06580714 220.7323428 -133.96142578 206.06103516 C-131.85705567 204.92267413 -129.73921794 203.8117548 -127.62109375 202.69921875 C-111.7198727 194.22769141 -97.473664 183.92662114 -84 172 C-83.10667969 171.21753906 -82.21335937 170.43507813 -81.29296875 169.62890625 C-72.55842498 161.8872292 -64.51627161 153.84124301 -57.30126953 144.65185547 C-56.38382126 143.48722976 -55.45967218 142.32786739 -54.53076172 141.17236328 C-41.86866601 125.40692886 -31.46249505 108.36277111 -23 90 C-22.52167725 88.97664551 -22.52167725 88.97664551 -22.03369141 87.93261719 C-9.11673107 59.96832848 -2.15925133 30.5981713 0 0 Z " fill="#FEFEFE" transform="translate(499,266)"/>
<path d="M0 0 C0.33 0 0.66 0 1 0 C1.14248169 1.32668701 1.14248169 1.32668701 1.2878418 2.68017578 C6.55306298 50.87022984 20.06500747 95.92104218 50 135 C50.65226562 135.85207031 51.30453125 136.70414063 51.9765625 137.58203125 C53.94541795 140.08968871 55.95966244 142.55013232 58 145 C58.43538086 145.52561523 58.87076172 146.05123047 59.31933594 146.59277344 C69.57736944 158.93480002 80.33181723 170.09802682 93 180 C93.93714844 180.76570312 94.87429687 181.53140625 95.83984375 182.3203125 C105.62771827 190.15565092 116.20897228 196.64267263 127 203 C127.7110791 203.42168457 128.4221582 203.84336914 129.15478516 204.27783203 C158.46739198 221.4194129 190.8260735 228.98181213 224 234 C224 234.33 224 234.66 224 235 C150.08 235 76.16 235 0 235 C0 157.45 0 79.9 0 0 Z " fill="#FEFEFE" transform="translate(0,265)"/>
<path d="M0 0 C2.93779227 2.58169623 5.30822228 5.30394457 7.0625 8.8125 C7.15970427 10.74800864 7.19227914 12.68705792 7.1875 14.625 C7.19136719 16.18154297 7.19136719 16.18154297 7.1953125 17.76953125 C7.07326175 20.56592942 6.69613355 23.09189879 6.0625 25.8125 C6.59359375 25.33039063 7.1246875 24.84828125 7.671875 24.3515625 C8.73148438 23.40410156 8.73148438 23.40410156 9.8125 22.4375 C10.85664063 21.49777344 10.85664063 21.49777344 11.921875 20.5390625 C16.54086175 16.81352939 20.3590313 16.21040927 26.2265625 16.2890625 C31.02183068 17.17413955 34.07252218 20.07902502 37.0625 23.8125 C38.77656508 28.95469525 38.96317745 34.56080638 36.9375 39.625 C31.78601769 45.63506269 27.81180835 47.65871409 20.0625 48.8125 C20.0625 49.4725 20.0625 50.1325 20.0625 50.8125 C20.63097656 50.88726562 21.19945313 50.96203125 21.78515625 51.0390625 C27.98415667 52.09465189 31.80462354 54.17719404 36.0625 58.8125 C39.04232138 63.28223207 38.67066742 67.57174864 38.0625 72.8125 C35.60682448 77.81480198 32.0654693 81.31101535 27.0625 83.8125 C21.08184946 84.41056505 16.89239435 83.24625301 12.0625 79.8125 C9.52536863 77.29458932 7.25403094 74.63409608 5.0625 71.8125 C5.5575 73.4521875 5.5575 73.4521875 6.0625 75.125 C7.62721649 81.51992828 8.53633787 88.67732427 5.5 94.75 C2.25103865 98.83202836 -0.73745103 101.20146703 -5.921875 102.19140625 C-11.29822847 102.51440423 -14.58582918 100.88426764 -18.9375 97.8125 C-22.75665717 93.61142712 -23.0750881 89.92005849 -23.0625 84.375 C-23.06636719 82.67537109 -23.06636719 82.67537109 -23.0703125 80.94140625 C-22.96075193 78.36028817 -22.69614877 76.26305595 -21.9375 73.8125 C-22.69933594 74.51826172 -22.69933594 74.51826172 -23.4765625 75.23828125 C-28.43473435 79.72291984 -32.53113108 83.37896214 -39.375 84.25 C-43.69947549 83.71892406 -46.56130916 82.55198984 -49.9375 79.8125 C-54.03852016 74.52434242 -55.50549764 70.5148721 -54.9375 63.8125 C-52.05541849 58.27003555 -48.20300086 54.03461859 -42.328125 51.8359375 C-39.87616559 51.09480852 -37.4262333 50.41746877 -34.9375 49.8125 C-36.0925 49.585625 -37.2475 49.35875 -38.4375 49.125 C-43.90501168 47.7193454 -48.86940561 45.57770486 -52.328125 40.953125 C-54.73863103 36.57347319 -55.74496352 32.83671747 -54.9375 27.8125 C-53.15184819 23.86064764 -50.94885497 20.7371674 -47.75 17.8125 C-42.77630756 16.04407602 -37.71989562 15.87054315 -32.6875 17.57421875 C-28.69346846 19.48802553 -25.27708789 21.89036059 -21.9375 24.8125 C-22.09605469 24.28398437 -22.25460938 23.75546875 -22.41796875 23.2109375 C-23.78810948 16.88562617 -23.99038005 10.07424234 -21.25 4.1875 C-15.33098529 -1.89148808 -8.01462898 -3.2399564 0 0 Z " fill="#FDFEFC" transform="translate(80.9375,237.1875)"/>
<path d="M0 0 C4.45413071 2.02460487 7.06977582 4.62074116 9.30859375 9.0234375 C11.80169023 16.15059466 9.39537601 23.17032673 7 30 C7.43570313 29.46890625 7.87140625 28.9378125 8.3203125 28.390625 C16.67777391 18.47744567 16.67777391 18.47744567 22.609375 17.625 C27.12793443 17.42960284 30.28850839 17.67659472 34.4375 19.5625 C38.76389273 23.67784918 40.71239095 26.98673668 41.5625 32.9375 C41.26014203 37.81302229 39.2791891 41.43930278 36 45 C31.01683986 48.76298448 26.198138 50.60437417 20 51 C20.88042969 51.24234375 21.76085937 51.4846875 22.66796875 51.734375 C23.82941406 52.06953125 24.99085938 52.4046875 26.1875 52.75 C27.33605469 53.07484375 28.48460937 53.3996875 29.66796875 53.734375 C34.04550891 55.39712179 36.89004298 57.62212233 39.8125 61.25 C41.72829417 65.68657598 41.71423618 69.56530812 40.37890625 74.1171875 C38.02636706 79.65872425 34.53737035 82.70759148 29 85 C22.98376858 86.22552862 19.29820836 83.80014253 14.33203125 80.703125 C11.9734789 78.98063115 10.00399646 77.11916867 8 75 C8.33 75.804375 8.66 76.60875 9 77.4375 C10.66541814 83.37055212 10.92785754 88.60048126 8.375 94.3125 C6.1579999 98.1425588 4.15922579 100.21747466 0 102 C-4.94655348 102.7842936 -9.73701824 103.21161372 -14.26171875 100.7890625 C-18.0894224 97.62739534 -20.73780525 94.51784079 -21.265625 89.44921875 C-21.23425504 83.90457818 -20.86141576 79.23523183 -19 74 C-19.49628906 74.54269531 -19.99257813 75.08539063 -20.50390625 75.64453125 C-25.86297104 81.28832813 -29.65299998 84.46615789 -37.5625 85.4375 C-42.88943896 84.75952595 -45.77665022 82.35560381 -49.3125 78.4375 C-52.46755771 73.88019442 -52.63555808 69.37000524 -52 64 C-49.44178887 58.45720922 -45.38414918 55.56618621 -40 53 C-37.32857576 52.12315497 -34.76782865 51.54368063 -32 51 C-32.556875 50.92523438 -33.11375 50.85046875 -33.6875 50.7734375 C-41.20955749 49.47740732 -46.53783885 46.46241412 -51 40.1875 C-52.76710304 34.55485906 -53.02489378 30.01182854 -50.3125 24.6875 C-44.82188208 18.30651161 -44.82188208 18.30651161 -40.515625 17.58203125 C-33.58966003 17.22808 -29.36344831 18.71652205 -24 23 C-23.01 23.763125 -22.02 24.52625 -21 25.3125 C-20.34 25.869375 -19.68 26.42625 -19 27 C-19.495 25.576875 -19.495 25.576875 -20 24.125 C-21.68667576 18.09941197 -22.12279244 12.33195354 -19.375 6.625 C-13.5443321 0.18057758 -8.49322386 -1.22778348 0 0 Z " fill="#FDFEFC" transform="translate(432,236)"/>
<path d="M0 0 C8.02502617 4.89752841 11.27958806 11.56831072 13.6640625 20.421875 C14.00630859 21.91460937 14.00630859 21.91460937 14.35546875 23.4375 C14.54753906 24.22898438 14.73960937 25.02046875 14.9375 25.8359375 C17.62326823 42.55296219 14.53736838 60.19916658 5.35546875 74.4375 C0.88306754 79.56336401 -3.79605204 83.1062385 -10.73046875 83.703125 C-23.88081143 83.64065306 -23.88081143 83.64065306 -30.20703125 79.9375 C-40.29358922 69.59231234 -42.19096363 57.71607609 -42.08203125 43.8125 C-42.07898987 43.14619568 -42.07594849 42.47989136 -42.07281494 41.793396 C-41.99000639 29.56312507 -41.75091676 16.84229354 -33.3515625 7.08203125 C-23.64400731 -2.27009858 -12.82770663 -5.87341735 0 0 Z " fill="#FCFEFB" transform="translate(413.64453125,129.5625)"/>
<path d="M0 0 C1.68471161 -0.01648035 3.36935562 -0.04366474 5.05371094 -0.08203125 C22.10059146 -0.46827719 22.10059146 -0.46827719 27.66748047 4.01318359 C35.28536577 11.75405201 36.33381728 20.97665323 36.28588867 31.41430664 C36.09809032 38.83668873 34.73643041 44.21698764 30.2331543 50.10009766 C27.70839214 53.01598149 27.70839214 53.01598149 28.16674805 55.69775391 C29.08825185 58.691539 30.33441854 61.26679872 31.7956543 64.03759766 C33.7845805 67.93377917 35.71366683 71.8213685 37.4206543 75.85009766 C37.9137207 77.01025391 37.9137207 77.01025391 38.41674805 78.19384766 C38.9831543 80.35009766 38.9831543 80.35009766 37.9831543 84.35009766 C32.3731543 84.35009766 26.7631543 84.35009766 20.9831543 84.35009766 C19.35764645 81.2670311 17.73272861 78.18365607 16.1081543 75.10009766 C15.64795898 74.22740234 15.18776367 73.35470703 14.71362305 72.45556641 C14.26889648 71.61123047 13.82416992 70.76689453 13.3659668 69.89697266 C12.95749512 69.12192383 12.54902344 68.346875 12.12817383 67.54833984 C10.9831543 65.35009766 10.9831543 65.35009766 10.06079102 63.11279297 C9.7051709 62.53110352 9.34955078 61.94941406 8.9831543 61.35009766 C5.42108769 60.53139581 5.42108769 60.53139581 1.9831543 60.35009766 C1.99362793 61.0363623 2.00410156 61.72262695 2.01489258 62.4296875 C2.05637304 65.52812054 2.08245499 68.62649526 2.1081543 71.72509766 C2.12491211 72.80533203 2.14166992 73.88556641 2.15893555 74.99853516 C2.16538086 76.02978516 2.17182617 77.06103516 2.1784668 78.12353516 C2.18894043 79.07663574 2.19941406 80.02973633 2.21020508 81.01171875 C1.9831543 83.35009766 1.9831543 83.35009766 -0.0168457 85.35009766 C-3.23950195 85.58056641 -3.23950195 85.58056641 -7.0793457 85.53759766 C-8.34907227 85.53115234 -9.61879883 85.52470703 -10.92700195 85.51806641 C-14.0168457 85.35009766 -14.0168457 85.35009766 -15.0168457 84.35009766 C-15.14721173 81.76998403 -15.21350069 79.21518936 -15.23803711 76.63330078 C-15.249543 75.82521469 -15.26104889 75.0171286 -15.27290344 74.18455505 C-15.30973433 71.50019191 -15.33929003 68.81580477 -15.3684082 66.13134766 C-15.39150846 64.27428841 -15.41489863 62.41723274 -15.43856812 60.56018066 C-15.48709183 56.66287241 -15.532015 52.76554309 -15.57446289 48.86816406 C-15.62930024 43.86066941 -15.69311934 38.85333688 -15.75963783 33.84598541 C-15.8095998 30.00974483 -15.8547727 26.17345944 -15.89847946 22.33714294 C-15.92011457 20.49025155 -15.94327204 18.64337736 -15.9679451 16.79652405 C-16.00165686 14.22000765 -16.02893111 11.64350335 -16.05444336 9.06689453 C-16.06581833 8.29594955 -16.0771933 7.52500458 -16.08891296 6.73069763 C-16.10328234 4.93706099 -16.06573945 3.14312534 -16.0168457 1.35009766 C-13.27227659 -1.39447146 -3.8688659 0.02770697 0 0 Z " fill="#FDFEFC" transform="translate(327.016845703125,128.64990234375)"/>
<path d="M0 0 C1.57007813 -0.12568359 1.57007813 -0.12568359 3.171875 -0.25390625 C6.63029281 0.66336446 6.9507372 1.03926129 8.80859375 3.90234375 C12.14824283 9.95537398 14.98789479 16.27235625 17.88085938 22.546875 C21.59326734 30.47380079 25.82814647 38.01700288 30.25 45.5625 C30.26030746 45.01348526 30.27061493 44.46447052 30.28123474 43.89881897 C30.38907947 38.20528719 30.50369449 32.51192079 30.62231445 26.81860352 C30.66573423 24.69135993 30.70740393 22.5640799 30.74731445 20.43676758 C30.80484707 17.38611849 30.86858967 14.33565411 30.93359375 11.28515625 C30.95866249 9.84922874 30.95866249 9.84922874 30.98423767 8.3842926 C31.00418289 7.50345505 31.02412811 6.62261749 31.04467773 5.71508789 C31.06022202 4.93565323 31.0757663 4.15621857 31.09178162 3.35316467 C31.25 1.5625 31.25 1.5625 32.25 0.5625 C34.41480797 0.4635706 36.58293785 0.432789 38.75 0.4375 C39.9359375 0.43492187 41.121875 0.43234375 42.34375 0.4296875 C45.25 0.5625 45.25 0.5625 46.25 1.5625 C47.38669146 11.8663464 47.4125509 22.25916581 47.41796875 32.61328125 C47.42119289 34.08920827 47.42455777 35.565135 47.42805481 37.0410614 C47.43397309 40.09728743 47.43590162 43.15348546 47.43530273 46.2097168 C47.43519983 50.1293086 47.44901431 54.04872443 47.46607494 57.96827412 C47.47715506 60.99906756 47.47922342 64.02981726 47.47869301 67.06062889 C47.47987289 68.50755627 47.48429514 69.95448478 47.49202538 71.40139198 C47.50177275 73.40860291 47.49769667 75.41586679 47.49291992 77.4230957 C47.49434494 78.56365921 47.49576996 79.70422272 47.49723816 80.87934875 C47.25 83.5625 47.25 83.5625 45.25 85.5625 C41.40253881 86.51319937 38.08754677 86.57659442 34.25 85.5625 C31.03717071 82.40715672 29.28795605 78.54202229 27.25 74.5625 C25.82769915 72.12378434 24.34762654 69.72106393 22.875 67.3125 C21.82417258 65.55165405 20.77342229 63.79076182 19.72363281 62.02929688 C16.24204717 56.20127479 12.74403765 50.38306231 9.25 44.5625 C9.23541748 45.73345215 9.22083496 46.9044043 9.20581055 48.11083984 C9.14793651 52.44595224 9.07070389 56.78053923 8.98754883 61.11523438 C8.95424798 62.99307747 8.92623224 64.8710219 8.90356445 66.74902344 C8.87011258 69.44510175 8.81780359 72.140247 8.76171875 74.8359375 C8.75213387 76.10006973 8.75213387 76.10006973 8.74235535 77.38973999 C8.68237305 79.75537109 8.68237305 79.75537109 8.25 83.5625 C4.85750652 85.82416232 3.59798499 85.80765545 -0.375 85.75 C-1.35726562 85.74355469 -2.33953125 85.73710937 -3.3515625 85.73046875 C-5.75 85.5625 -5.75 85.5625 -6.75 84.5625 C-6.85039611 81.98149244 -6.88617269 79.42722103 -6.87939453 76.84570312 C-6.88114685 76.03761703 -6.88289917 75.22953094 -6.88470459 74.3969574 C-6.88912376 71.7125334 -6.88618489 69.02817472 -6.8828125 66.34375 C-6.88348552 64.48669421 -6.88445553 62.6296385 -6.88571167 60.77258301 C-6.88718873 56.87523563 -6.88503382 52.97791113 -6.88037109 49.08056641 C-6.8746738 44.073155 -6.87795276 39.06579719 -6.88394356 34.05838776 C-6.88754895 30.22210279 -6.88641069 26.38583063 -6.88381577 22.54954529 C-6.88314644 20.70267226 -6.88397513 18.85579808 -6.88629532 17.00892639 C-6.88882149 14.43235168 -6.88498177 11.85586499 -6.87939453 9.27929688 C-6.88141876 8.5083519 -6.88344299 7.73740692 -6.88552856 6.94309998 C-6.85974572 0.55820919 -6.32421714 0.36248562 0 0 Z " fill="#FCFEFB" transform="translate(197.75,292.4375)"/>
<path d="M0 0 C1.57007813 -0.12568359 1.57007813 -0.12568359 3.171875 -0.25390625 C6.63029281 0.66336446 6.9507372 1.03926129 8.80859375 3.90234375 C12.14824283 9.95537398 14.98789479 16.27235625 17.88085938 22.546875 C21.59326734 30.47380079 25.82814647 38.01700288 30.25 45.5625 C30.26030746 45.01348526 30.27061493 44.46447052 30.28123474 43.89881897 C30.38907947 38.20528719 30.50369449 32.51192079 30.62231445 26.81860352 C30.66573423 24.69135993 30.70740393 22.5640799 30.74731445 20.43676758 C30.80484707 17.38611849 30.86858967 14.33565411 30.93359375 11.28515625 C30.95866249 9.84922874 30.95866249 9.84922874 30.98423767 8.3842926 C31.00418289 7.50345505 31.02412811 6.62261749 31.04467773 5.71508789 C31.06022202 4.93565323 31.0757663 4.15621857 31.09178162 3.35316467 C31.25 1.5625 31.25 1.5625 32.25 0.5625 C34.41480797 0.4635706 36.58293785 0.432789 38.75 0.4375 C39.9359375 0.43492188 41.121875 0.43234375 42.34375 0.4296875 C45.25 0.5625 45.25 0.5625 46.25 1.5625 C47.38669146 11.8663464 47.4125509 22.25916581 47.41796875 32.61328125 C47.42119289 34.08920827 47.42455777 35.565135 47.42805481 37.0410614 C47.43397309 40.09728743 47.43590162 43.15348546 47.43530273 46.2097168 C47.43519983 50.1293086 47.44901431 54.04872443 47.46607494 57.96827412 C47.47715506 60.99906756 47.47922342 64.02981726 47.47869301 67.06062889 C47.47987289 68.50755627 47.48429514 69.95448478 47.49202538 71.40139198 C47.50177275 73.40860291 47.49769667 75.41586679 47.49291992 77.4230957 C47.49434494 78.56365921 47.49576996 79.70422272 47.49723816 80.87934875 C47.25 83.5625 47.25 83.5625 45.25 85.5625 C41.40253881 86.51319937 38.08754677 86.57659442 34.25 85.5625 C31.03717071 82.40715672 29.28795605 78.54202229 27.25 74.5625 C25.82769915 72.12378434 24.34762654 69.72106393 22.875 67.3125 C21.82417258 65.55165405 20.77342229 63.79076182 19.72363281 62.02929688 C16.24204717 56.20127479 12.74403765 50.38306231 9.25 44.5625 C9.23541748 45.73345215 9.22083496 46.9044043 9.20581055 48.11083984 C9.14793651 52.44595224 9.07070389 56.78053923 8.98754883 61.11523438 C8.95424798 62.99307747 8.92623224 64.8710219 8.90356445 66.74902344 C8.87011258 69.44510175 8.81780359 72.140247 8.76171875 74.8359375 C8.75213387 76.10006973 8.75213387 76.10006973 8.74235535 77.38973999 C8.68237305 79.75537109 8.68237305 79.75537109 8.25 83.5625 C4.85750652 85.82416232 3.59798499 85.80765545 -0.375 85.75 C-1.35726562 85.74355469 -2.33953125 85.73710937 -3.3515625 85.73046875 C-5.75 85.5625 -5.75 85.5625 -6.75 84.5625 C-6.85039611 81.98149244 -6.88617269 79.42722103 -6.87939453 76.84570312 C-6.88114685 76.03761703 -6.88289917 75.22953094 -6.88470459 74.3969574 C-6.88912376 71.7125334 -6.88618489 69.02817472 -6.8828125 66.34375 C-6.88348552 64.48669421 -6.88445553 62.6296385 -6.88571167 60.77258301 C-6.88718873 56.87523563 -6.88503382 52.97791113 -6.88037109 49.08056641 C-6.8746738 44.073155 -6.87795276 39.06579719 -6.88394356 34.05838776 C-6.88754895 30.22210279 -6.88641069 26.38583063 -6.88381577 22.54954529 C-6.88314644 20.70267226 -6.88397513 18.85579808 -6.88629532 17.00892639 C-6.88882149 14.43235168 -6.88498177 11.85586499 -6.87939453 9.27929688 C-6.88141876 8.5083519 -6.88344299 7.73740692 -6.88552856 6.94309998 C-6.85974572 0.55820919 -6.32421714 0.36248562 0 0 Z " fill="#FCFEFB" transform="translate(200.75,127.4375)"/>
<path d="M0 0 C1.75570312 0.01353516 1.75570312 0.01353516 3.546875 0.02734375 C4.43890625 0.03894531 5.3309375 0.05054688 6.25 0.0625 C6.54390625 1.21685547 6.54390625 1.21685547 6.84375 2.39453125 C9.12009147 11.13685992 11.64865689 19.78634051 14.25 28.4375 C17.29139579 38.58570994 19.95164949 48.72552844 22.25 59.0625 C22.78359266 61.25198348 23.3246031 63.43968028 23.875 65.625 C24.10960937 66.56601562 24.34421875 67.50703125 24.5859375 68.4765625 C25.00860138 70.12246538 25.44939368 71.7638966 25.9140625 73.3984375 C27.00445998 77.30932981 27.47513219 80.142077 26.25 84.0625 C22.89260906 84.95780425 19.58373168 85.23847112 16.125 85.375 C15.27679688 85.41238281 14.42859375 85.44976562 13.5546875 85.48828125 C11.25 85.0625 11.25 85.0625 9.5078125 83.48046875 C8.25 81.0625 8.25 81.0625 7.25 74.0625 C0.98 74.0625 -5.29 74.0625 -11.75 74.0625 C-12.74 77.0325 -13.73 80.0025 -14.75 83.0625 C-16.57116003 84.88366003 -19.05671764 84.1948508 -21.4765625 84.19921875 C-22.60191406 84.19341797 -22.60191406 84.19341797 -23.75 84.1875 C-24.87535156 84.19330078 -24.87535156 84.19330078 -26.0234375 84.19921875 C-31.62338947 84.18911053 -31.62338947 84.18911053 -32.75 83.0625 C-33.01500768 78.84646876 -32.49260084 75.73918837 -31 71.8125 C-29.21373412 66.74724955 -27.96164295 61.74512013 -26.875 56.5 C-25.37810798 49.3721568 -23.39634183 42.53797938 -21.11083984 35.62670898 C-18.5734062 27.81854439 -16.63436775 19.88300577 -14.75439453 11.89404297 C-14.52091309 10.91838379 -14.28743164 9.94272461 -14.046875 8.9375 C-13.84416992 8.06867188 -13.64146484 7.19984375 -13.43261719 6.3046875 C-12.75 4.0625 -12.75 4.0625 -10.75 1.0625 C-7.29381386 -0.32473067 -3.67497653 -0.03674977 0 0 Z " fill="#FCFEFB" transform="translate(345.75,293.9375)"/>
<path d="M0 0 C0.87430664 -0.00630432 1.74861328 -0.01260864 2.64941406 -0.019104 C4.06818848 -0.01303131 4.06818848 -0.01303131 5.515625 -0.00683594 C6.48467773 -0.00874939 7.45373047 -0.01066284 8.45214844 -0.01263428 C10.50325785 -0.01399673 12.55437586 -0.01029612 14.60546875 -0.00195312 C17.75280039 0.00874547 20.8995612 -0.00184647 24.046875 -0.01464844 C26.0364596 -0.01332685 28.02604384 -0.01076448 30.015625 -0.00683594 C30.96147461 -0.0108844 31.90732422 -0.01493286 32.88183594 -0.019104 C33.75614258 -0.01279968 34.63044922 -0.00649536 35.53125 0 C36.68802246 0.00238678 36.68802246 0.00238678 37.86816406 0.00482178 C39.765625 0.25878906 39.765625 0.25878906 41.765625 2.25878906 C42.03125 5.44628906 42.03125 5.44628906 42.015625 9.25878906 C42.02335937 11.14597656 42.02335937 11.14597656 42.03125 13.07128906 C41.765625 16.25878906 41.765625 16.25878906 39.765625 18.25878906 C36.96826172 18.57763672 36.96826172 18.57763672 33.4453125 18.67285156 C31.56005859 18.73085937 31.56005859 18.73085937 29.63671875 18.79003906 C27.65865234 18.83644531 27.65865234 18.83644531 25.640625 18.88378906 C24.30075582 18.92196935 22.96091117 18.96102112 21.62109375 19.00097656 C18.33607881 19.09550937 15.05107362 19.18106062 11.765625 19.25878906 C11.765625 23.21878906 11.765625 27.17878906 11.765625 31.25878906 C19.025625 31.25878906 26.285625 31.25878906 33.765625 31.25878906 C33.765625 35.87878906 33.765625 40.49878906 33.765625 45.25878906 C26.62175268 45.99149392 20.02201472 46.25878906 12.765625 46.25878906 C12.765625 53.51878906 12.765625 60.77878906 12.765625 68.25878906 C15.65441406 68.22398437 15.65441406 68.22398437 18.6015625 68.18847656 C21.11457947 68.1697227 23.62760062 68.1515221 26.140625 68.13378906 C28.04714844 68.10865234 28.04714844 68.10865234 29.9921875 68.08300781 C31.20390625 68.0765625 32.415625 68.07011719 33.6640625 68.06347656 C34.78474121 68.05300293 35.90541992 68.0425293 37.06005859 68.03173828 C39.765625 68.25878906 39.765625 68.25878906 41.765625 70.25878906 C42.907014 74.25365055 42.99531671 78.12433833 42.765625 82.25878906 C42.105625 83.24878906 41.445625 84.23878906 40.765625 85.25878906 C38.02270508 85.69116211 38.02270508 85.69116211 34.53515625 85.77050781 C33.25576172 85.80595703 31.97636719 85.84140625 30.65820312 85.87792969 C29.29818042 85.90091461 27.93815434 85.92370045 26.578125 85.94628906 C25.28197266 85.98044922 23.98582031 86.01460938 22.65039062 86.04980469 C19.36222039 86.1299242 16.07505258 86.18567955 12.78619385 86.22601318 C10.70219039 86.25981804 8.61994966 86.31996421 6.53662109 86.38232422 C5.17937504 86.41078588 3.82211606 86.43863948 2.46484375 86.46582031 C1.25014404 86.49780518 0.03544434 86.52979004 -1.21606445 86.56274414 C-4.234375 86.25878906 -4.234375 86.25878906 -6.13256836 85.04638672 C-7.57851267 82.70045181 -7.59214736 81.20458842 -7.5625 78.45019531 C-7.55814941 77.41741455 -7.55379883 76.38463379 -7.54931641 75.32055664 C-7.52788574 74.16579834 -7.50645508 73.01104004 -7.484375 71.82128906 C-7.47196777 70.60530029 -7.45956055 69.38931152 -7.44677734 68.13647461 C-7.41537159 65.26099331 -7.37152696 62.38595456 -7.32128906 59.51074219 C-7.25399982 55.61630624 -7.20146578 51.72189193 -7.15527344 47.82714844 C-7.08526603 41.93405106 -7.00325989 36.04122775 -6.91296387 30.14840698 C-6.87718367 27.76003794 -6.84406994 25.37162749 -6.81359863 22.98318481 C-6.76838128 19.59173663 -6.71014219 16.20075353 -6.6484375 12.80957031 C-6.63686615 11.77435242 -6.6252948 10.73913452 -6.6133728 9.67254639 C-6.59352325 8.72429993 -6.57367371 7.77605347 -6.55322266 6.79907227 C-6.53989899 5.96720901 -6.52657532 5.13534576 -6.5128479 4.27827454 C-5.94613448 0.1684688 -3.58699999 0.00740109 0 0 Z " fill="#FBFEFA" transform="translate(141.234375,127.7412109375)"/>
<path d="M0 0 C3.53277704 1.50361998 6.17041479 3.43053361 9 6 C10.2684375 7.0209375 10.2684375 7.0209375 11.5625 8.0625 C13 10 13 10 13.625 12.3125 C12.65444167 16.48590082 10.24501893 19.26129608 7 22 C4.375 22.625 4.375 22.625 2 22 C1.40703125 21.49855469 0.8140625 20.99710937 0.203125 20.48046875 C-2.57945503 18.61061444 -4.30171862 18.62927539 -7.625 18.6875 C-8.58664062 18.69136719 -9.54828125 18.69523437 -10.5390625 18.69921875 C-13.17574003 18.76500806 -13.17574003 18.76500806 -15 21 C-15.91955603 23.82491198 -15.91955603 23.82491198 -15 27 C-10.78994827 30.92668287 -5.34889679 33.36492309 -0.3125 36.0625 C6.24745483 39.58560861 12.21032829 43.25020366 14.55078125 50.76953125 C16.18092152 58.86353208 15.75134249 66.56211029 11.62890625 73.7734375 C8.16965479 78.50191072 3.55870264 82.92397493 -2 85 C-4.63564365 85.24530882 -7.11573046 85.38108306 -9.75 85.375 C-10.82471558 85.37258301 -10.82471558 85.37258301 -11.92114258 85.37011719 C-17.54946148 85.23944949 -21.49167881 84.3237368 -26 81 C-26.886875 80.401875 -27.77375 79.80375 -28.6875 79.1875 C-31.57486206 76.45621157 -34.16985495 73.55126018 -36 70 C-36 66 -36 66 -34.42578125 64.04296875 C-33.72839844 63.43066406 -33.03101563 62.81835938 -32.3125 62.1875 C-31.62800781 61.56230469 -30.94351562 60.93710937 -30.23828125 60.29296875 C-28 59 -28 59 -25.43359375 59.11328125 C-22.82141138 60.06507162 -21.64761217 61.00654883 -19.75 63 C-16.34050136 66.10361364 -13.64379229 66.80123973 -9.11328125 67.1875 C-6.68126229 66.97172013 -5.09961517 66.21332163 -3 65 C-2.58228196 61.66799815 -2.58228196 61.66799815 -3 58 C-6.37295553 54.7817672 -10.1004684 52.81474277 -14.25 50.75 C-21.51091187 46.89727126 -27.60862429 42.76822839 -32.0625 35.75 C-34.18521595 27.25913619 -33.92870063 19.94322541 -29.5546875 12.2578125 C-22.03630945 1.33916296 -13.12459124 -1.7269199 0 0 Z " fill="#FCFEFB" transform="translate(291,293)"/>
<path d="M0 0 C5.21948099 2.44099036 8.99622594 5.16468083 12.03515625 10.08984375 C11.51390047 14.7252969 8.58340435 18.23153278 5.03515625 21.08984375 C0.99732295 21.16901695 -0.60466288 20.32996433 -3.96484375 18.08984375 C-6.63983668 17.77272099 -6.63983668 17.77272099 -9.52734375 17.83984375 C-10.98333984 17.83210938 -10.98333984 17.83210938 -12.46875 17.82421875 C-15.13777312 17.84389879 -15.13777312 17.84389879 -16.96484375 20.08984375 C-17.20263903 23.18118235 -16.95449394 25.12089319 -15.96484375 28.08984375 C-14.32731695 28.82518598 -12.65090376 29.47386983 -10.96484375 30.08984375 C-0.95670428 34.92792749 7.59333594 39.7511841 13.47265625 49.46484375 C15.53030021 59.06718224 13.34959695 67.64469117 8.28515625 75.96484375 C0.97760858 82.86641655 -6.15447389 84.73585955 -16.08984375 84.49609375 C-23.50448068 83.71875278 -28.5159116 79.89676128 -33.52734375 74.58984375 C-35.92933928 71.43333089 -37.47666508 69.18441442 -36.96484375 65.08984375 C-34.63284385 62.27319839 -32.09267915 59.9878839 -28.96484375 58.08984375 C-27.64484375 58.08984375 -26.32484375 58.08984375 -24.96484375 58.08984375 C-23.62061036 59.7477316 -22.28865892 61.41560692 -20.96484375 63.08984375 C-16.55369919 65.93258135 -13.18628336 66.67000371 -7.96484375 66.08984375 C-5.56400937 64.73099259 -5.56400937 64.73099259 -3.96484375 63.08984375 C-3.84861764 60.18419098 -3.81870582 58.69757041 -4.96484375 56.08984375 C-8.02108706 53.57720103 -11.44547858 51.87192682 -14.96484375 50.08984375 C-30.34325687 41.9907118 -30.34325687 41.9907118 -33.96484375 33.08984375 C-35.14411191 24.35046111 -35.01771965 16.54175459 -29.75 9.14453125 C-21.58044981 -0.25849588 -12.50224759 -3.83797587 0 0 Z " fill="#FCFEFC" transform="translate(166.96484375,293.91015625)"/>
<path d="M0 0 C4.3046952 2.42053148 8.4503887 5.41266403 10.6875 9.9375 C10.42526637 13.39360482 8.98786786 15.01565599 6.4375 17.25 C3.12976457 19.91643978 3.12976457 19.91643978 0.0625 20.0625 C-2.3125 18.9375 -2.3125 18.9375 -4.75 16.875 C-7.1808084 14.72782467 -7.1808084 14.72782467 -10.25 14.4375 C-14.89584717 15.19600566 -17.88371531 17.40665926 -21.0625 20.8125 C-24.72767306 27.0432942 -24.67849712 33.22325593 -24.6875 40.25 C-24.71199219 41.24451172 -24.73648438 42.23902344 -24.76171875 43.26367188 C-24.79414382 51.49423428 -23.16275196 57.68006918 -17.6875 63.9375 C-14.22879586 66.85009296 -12.01618151 67.2586637 -7.46875 67.2421875 C-5.05508123 66.90112561 -3.67031672 66.17574967 -1.625 64.875 C1.6875 62.9375 1.6875 62.9375 4.25 62.875 C7.65116914 64.35756091 9.94014054 66.44570887 12.6875 68.9375 C12.39997474 72.29196138 11.76112044 73.84603218 9.625 76.5 C1.5909352 83.16656441 -7.02457797 84.87779395 -17.3125 83.9375 C-25.63267272 82.12663888 -30.35462381 77.65536473 -35.3125 70.9375 C-35.94478516 70.08671875 -35.94478516 70.08671875 -36.58984375 69.21875 C-43.58043462 58.45587802 -44.0429315 43.15215752 -41.5859375 30.8671875 C-38.24444552 17.41971977 -33.78936906 8.58069138 -22.33984375 0.5546875 C-15.21505458 -3.62948027 -7.4086348 -3.36452287 0 0 Z " fill="#FCFEFB" transform="translate(111.3125,130.0625)"/>
<path d="M0 0 C13.46222085 0.02822269 26.90185141 0.58223953 40.3515625 1.1328125 C40.3515625 6.0828125 40.3515625 11.0328125 40.3515625 16.1328125 C35.7315625 16.1328125 31.1115625 16.1328125 26.3515625 16.1328125 C26.36316406 17.85757813 26.37476563 19.58234375 26.38671875 21.359375 C26.45535812 36.56246806 26.29325545 51.74694179 25.9140625 66.9453125 C25.89441437 67.79675842 25.87476624 68.64820435 25.85452271 69.52545166 C25.79771213 71.94292401 25.7340582 74.36010934 25.66796875 76.77734375 C25.65125122 77.50825729 25.63453369 78.23917084 25.61730957 78.99223328 C25.46659453 84.01778047 25.46659453 84.01778047 24.3515625 85.1328125 C22.18675453 85.2317419 20.01862465 85.2625235 17.8515625 85.2578125 C16.665625 85.26039063 15.4796875 85.26296875 14.2578125 85.265625 C11.3515625 85.1328125 11.3515625 85.1328125 10.3515625 84.1328125 C10.2573451 82.01599933 10.23413489 79.89600492 10.23803711 77.77709961 C10.23789108 77.11371078 10.23774506 76.45032196 10.2375946 75.76683044 C10.23829369 73.56457294 10.24608585 71.36239905 10.25390625 69.16015625 C10.25577044 67.63700914 10.25719434 66.11386143 10.25819397 64.5907135 C10.26201904 60.57443599 10.27184922 56.55819442 10.28289795 52.54193115 C10.29311231 48.44657884 10.29769164 44.35122074 10.30273438 40.25585938 C10.31347151 32.21482538 10.33106821 24.17382755 10.3515625 16.1328125 C5.7315625 16.1328125 1.1115625 16.1328125 -3.6484375 16.1328125 C-3.67528845 13.65357449 -3.69520297 11.1746241 -3.7109375 8.6953125 C-3.72350586 7.63473633 -3.72350586 7.63473633 -3.73632812 6.55273438 C-3.74497338 4.74587691 -3.70063761 2.93893647 -3.6484375 1.1328125 C-2.6484375 0.1328125 -2.6484375 0.1328125 0 0 Z " fill="#FCFEFB" transform="translate(259.6484375,127.8671875)"/>
<path d="M0 0 C3.09833271 1.03277757 4.52953243 2.13251294 6.09155273 5.01269531 C8.80892532 11.45397024 9.60672957 16.91642665 9.4375 23.875 C9.42356201 24.83519043 9.40962402 25.79538086 9.39526367 26.78466797 C9.18333911 34.94825069 8.91102665 43.0304182 3.9375 49.8125 C-0.5277366 51.61759565 -4.38543094 51.18883813 -9 50 C-12.79640904 47.66374828 -14.20573481 44.10887255 -15.46484375 39.953125 C-17.65198296 27.88394805 -17.129234 14.01588148 -10.31640625 3.59375 C-7.23033001 -0.14250847 -4.59426937 -0.45942694 0 0 Z " fill="#80D959" transform="translate(403,145)"/>
<path d="M0 0 C4.16303261 1.36099143 5.73173864 2.65607517 8.4375 6.125 C10.63189359 10.4586978 10.34234729 14.41364677 9 19 C7.18872454 22.04035523 5.78738074 23.54069457 2.75 25.3125 C-2.61670639 26.6541766 -6.39171139 26.78897177 -11.3125 24.375 C-14.40483097 21.6422424 -15.73724492 19.93682468 -17 16 C-17.28767252 11.06598035 -16.7675754 7.94936957 -13.625 4.0625 C-8.94867061 0.38824119 -5.90185592 -0.69433599 0 0 Z " fill="#80D95A" transform="translate(430,274)"/>
<path d="M0 0 C4.12611421 1.74213711 6.73295974 4.13763511 9 8 C9.69498801 12.24714892 9.47444282 15.81389296 7.875 19.8125 C4.98574853 23.18329338 2.29965011 25.50991063 -2.14453125 26.45703125 C-6.72731472 26.79273771 -9.42622672 26.13017574 -13 23.1875 C-16.29878032 20.09489345 -17.18007935 17.21195787 -17.4375 12.75 C-17.41406345 7.96894285 -15.74345728 5.68882499 -12.5078125 2.3125 C-8.83402502 -0.88540827 -4.63358506 -0.44244302 0 0 Z " fill="#80D959" transform="translate(77,274)"/>
<path d="M0 0 C12 0 12 0 15 1 C18.23329086 5.71476527 17.44678732 11.54779849 17 17 C16.17315054 21.06318991 14.96131543 24.09523254 11.875 27 C9 28 9 28 0 28 C0 18.76 0 9.52 0 0 Z " fill="#81DA5B" transform="translate(329,145)"/>
<path d="M0 0 C0.66 0 1.32 0 2 0 C2.8393758 3.10256512 3.6704505 6.20729444 4.5 9.3125 C4.73847656 10.19357422 4.97695313 11.07464844 5.22265625 11.98242188 C5.44824219 12.82998047 5.67382812 13.67753906 5.90625 14.55078125 C6.11572266 15.33106689 6.32519531 16.11135254 6.54101562 16.9152832 C7 19 7 19 7 22 C3.37 22 -0.26 22 -4 22 C-3.3622098 14.47407567 -1.80110167 7.32901118 0 0 Z " fill="#89DC65" transform="translate(342,327)"/>
</svg>
